<?xml version="1.0" encoding="iso-8859-1"?>
<!-- Generator: Adobe Illustrator 19.0.0, SVG Export Plug-In . SVG Version: 6.00 Build 0)  -->
<svg version="1.1" id="Capa_1" xmlns="http://www.w3.org/2000/svg" xmlns:xlink="http://www.w3.org/1999/xlink" x="0px" y="0px"
	 viewBox="0 0 489.7 489.7" style="enable-background:new 0 0 489.7 489.7;" xml:space="preserve">
<g>
	<g>
		<path
         d="m 62.06239,94.25 369.82521,0 c 8.341,0 15.0874,-5.5 15.0874,-12.3 0,-6.8 -6.7464,-12.3 -15.0874,-12.3 l -369.82521,0 c -8.340995,0 -15.087392,5.5 -15.087392,12.3 0,6.8 6.746397,12.3 15.087392,12.3 z" /><path
         d="m 62.06239,257.15 369.82521,0 c 8.341,0 15.0874,-5.5 15.0874,-12.3 0,-6.8 -6.7464,-12.3 -15.0874,-12.3 l -369.82521,0 c -8.340995,0 -15.087392,5.5 -15.087392,12.3 0,6.8 6.746397,12.3 15.087392,12.3 z" /><path
         d="m 62.06239,419.95 369.82521,0 c 8.341,0 15.0874,-5.5 15.0874,-12.3 0,-6.8 -6.7464,-12.3 -15.0874,-12.3 l -369.82521,0 c -8.340995,0 -15.087392,5.5 -15.087392,12.3 0,6.8 6.746397,12.3 15.087392,12.3 z" />
	</g>
</g>
<g>
</g>
<g>
</g>
<g>
</g>
<g>
</g>
<g>
</g>
<g>
</g>
<g>
</g>
<g>
</g>
<g>
</g>
<g>
</g>
<g>
</g>
<g>
</g>
<g>
</g>
<g>
</g>
<g>
</g>
</svg>
